<?xml version="1.0" encoding="UTF-8" standalone="no"?>
<!-- Created with Inkscape (http://www.inkscape.org/) -->

<svg
   xmlns:dc="http://purl.org/dc/elements/1.1/"
   xmlns:cc="http://creativecommons.org/ns#"
   xmlns:rdf="http://www.w3.org/1999/02/22-rdf-syntax-ns#"
   xmlns:svg="http://www.w3.org/2000/svg"
   xmlns="http://www.w3.org/2000/svg"
   xmlns:sodipodi="http://sodipodi.sourceforge.net/DTD/sodipodi-0.dtd"
   xmlns:inkscape="http://www.inkscape.org/namespaces/inkscape"
   width="210mm"
   height="297mm"
   viewBox="0 0 210 297"
   version="1.1"
   id="svg8"
   inkscape:version="0.92.2 5c3e80d, 2017-08-06"
   sodipodi:docname="drawing.svg">
  <sodipodi:namedview
     id="base"
     pagecolor="#ffffff"
     bordercolor="#666666"
     borderopacity="1.0"
     inkscape:pageopacity="0.0"
     inkscape:pageshadow="2"
     inkscape:zoom="0.35"
     inkscape:cx="400"
     inkscape:cy="560"
     inkscape:document-units="mm"
     inkscape:current-layer="layer1"
     showgrid="false"
     inkscape:window-width="1280"
     inkscape:window-height="710"
     inkscape:window-x="118"
     inkscape:window-y="0"
     inkscape:window-maximized="0" />
  <defs
     id="defs2" />
  <metadata
     id="metadata5">
    <rdf:RDF>
      <cc:Work
         rdf:about="">
        <dc:format>image/svg+xml</dc:format>
        <dc:type
           rdf:resource="http://purl.org/dc/dcmitype/StillImage" />
        <dc:title />
      </cc:Work>
    </rdf:RDF>
  </metadata>
  <g
     inkscape:label="Layer 1"
     inkscape:groupmode="layer"
     id="layer1">
    <path
       style="color:#000000;font-style:normal;font-variant:normal;font-weight:normal;font-stretch:normal;font-size:medium;line-height:normal;font-family:sans-serif;font-variant-ligatures:normal;font-variant-position:normal;font-variant-caps:normal;font-variant-numeric:normal;font-variant-alternates:normal;font-feature-settings:normal;text-indent:0;text-align:start;text-decoration:none;text-decoration-line:none;text-decoration-style:solid;text-decoration-color:#000000;letter-spacing:normal;word-spacing:normal;text-transform:none;writing-mode:lr-tb;direction:ltr;text-orientation:mixed;dominant-baseline:auto;baseline-shift:baseline;text-anchor:start;white-space:normal;shape-padding:0;clip-rule:nonzero;display:inline;overflow:visible;visibility:visible;opacity:1;isolation:auto;mix-blend-mode:normal;color-interpolation:sRGB;color-interpolation-filters:linearRGB;solid-color:#000000;solid-opacity:1;vector-effect:none;fill:#000000;fill-opacity:1;fill-rule:nonzero;stroke:#000000;stroke-width:0.26458332px;stroke-linecap:butt;stroke-linejoin:miter;stroke-miterlimit:4;stroke-dasharray:none;stroke-dashoffset:0;stroke-opacity:1;color-rendering:auto;image-rendering:auto;shape-rendering:auto;text-rendering:auto;enable-background:accumulate"
       d="m 33.900391,157.84961 c 0.0031,-0.005 -0.0038,0.005 -0.02734,0.0234 -0.0471,0.0361 -0.164755,0.10533 -0.412109,0.20312 -0.49471,0.19558 -1.505428,0.50332 -3.533204,0.92774 -4.055551,0.84883 -12.180674,2.1709 -28.4316402,4.06054 l 0.03125,0.26367 c 16.2549862,-1.89011 24.3841412,-3.21434 28.4550782,-4.0664 2.035468,-0.42603 3.05507,-0.73344 3.576172,-0.93945 0.178249,-0.0705 0.242631,-0.11472 0.326172,-0.16407 v 44.47461 l 36.570312,1.52344 -4.533203,-36.25586 44.316405,9.76563 1.51367,81.69531 39.59571,-7.61328 -8.31055,-39.28711 35.23437,-0.75 -0.75586,70.92383 0.25586,0.0527 22.69141,-54.46094 -6.0332,-49.75976 12.68554,1.49218 0.0312,-0.26367 -13.01757,-1.53125 6.0625,50.02539 -22.40235,53.76953 0.75,-70.51757 -35.82617,0.76367 8.32031,39.33398 -39.02148,7.50391 -1.51172,-81.58985 -44.886719,-9.89062 4.539063,36.31641 -36.001953,-1.5 V 157.9043 h -0.265625 c 0,0 0.0027,-0.0276 0.0059,-0.0371 0.0032,-0.009 0.0082,-0.0152 0.0098,-0.0176 z"
       id="path10"
       inkscape:connector-curvature="0" />
  </g>
</svg>
